<mxfile host="app.diagrams.net" modified="2024-01-31T18:11:20.858Z" agent="Mozilla/5.0 (Windows NT 10.0; Win64; x64) AppleWebKit/537.36 (KHTML, like Gecko) Chrome/121.0.0.0 Safari/537.36" version="23.1.0" etag="XPbMl7nc6iTQIt96C8Wt" type="github">
  <diagram name="Page-1" id="W4VM2-hXyTWS2gMIyIT_">
    <mxGraphModel>
      <root>
        <mxCell id="0" />
        <mxCell id="1" parent="0" />
      </root>
    </mxGraphModel>
  </diagram>
</mxfile>
